<?xml version="1.0" standalone="no"?>
<!DOCTYPE svg PUBLIC "-//W3C//DTD SVG 20010904//EN"
 "http://www.w3.org/TR/2001/REC-SVG-20010904/DTD/svg10.dtd">
<svg version="1.0" xmlns="http://www.w3.org/2000/svg"
 width="64.000000pt" height="64.000000pt" viewBox="0 0 64.000000 64.000000"
 preserveAspectRatio="xMidYMid meet">
<metadata>
Created by potrace 1.16, written by Peter Selinger 2001-2019
</metadata>
<g transform="translate(0.000000,64.000000) scale(0.100000,-0.100000)"
fill="#000000" stroke="none">
<path d="M1 518 c1 -92 3 -115 10 -92 23 79 124 180 203 203 23 7 0 9 -91 10
l-123 1 1 -122z"/>
<path d="M426 629 c79 -23 180 -124 203 -203 7 -23 9 0 10 92 l1 122 -122 -1
c-92 -1 -115 -3 -92 -10z"/>
<path d="M1 123 l-1 -123 123 1 c91 1 114 3 91 10 -79 23 -180 124 -203 203
-7 23 -9 0 -10 -91z"/>
<path d="M627 212 c-14 -71 -121 -178 -201 -201 -23 -7 0 -9 92 -10 l122 -1 0
120 c0 66 -2 120 -4 120 -2 0 -6 -13 -9 -28z"/>
</g>
</svg>
